<svg xmlns="http://www.w3.org/2000/svg" width="572" height="478" viewBox="0 0 572 478"><g fill="none" fill-rule="evenodd" transform="translate(0 1)"><g fill="#000" fill-rule="nonzero" transform="translate(63)"><rect width="250" height="204" fill-opacity=".1" rx="3"/><g transform="translate(13 60)"><circle cx="18" cy="10" r="10"/><text font-family="Helvetica-Bold, Helvetica" font-size="13" font-weight="bold" transform="translate(0 25)"><tspan x="0" y="13">Static</tspan></text></g></g><g fill-rule="nonzero" transform="translate(321)"><rect width="250" height="204" fill="#000" fill-opacity=".1" rx="3"/><g transform="translate(123.843 29)"><circle cx="13.472" cy="10" r="10" fill="#28D9F2"/><text fill="#000" font-family="Helvetica-Bold, Helvetica" font-size="13" font-weight="bold" transform="translate(0 25)"><tspan x="0" y="13">VRL</tspan></text></g></g><rect width="250" height="204" x="63" y="216" fill="#000" fill-opacity=".1" fill-rule="nonzero" rx="3"/><g fill="#000" fill-rule="nonzero" transform="translate(321 216)"><rect width="250" height="204" fill-opacity=".1" rx="3"/><g transform="translate(178.24 74)"><text font-family="Helvetica-Bold, Helvetica" font-size="13" font-weight="bold" transform="translate(0 24)"><tspan x="0" y="13">Runtimes</tspan></text><circle cx="33.148" cy="10" r="10"/></g></g><text fill="#000" fill-rule="nonzero" font-family="Helvetica" font-size="21" transform="translate(269 452)"><tspan x="0" y="20">Flexibility</tspan></text><g stroke="#28D9F2" stroke-linecap="round" stroke-linejoin="round"><path stroke-width="4" d="M67 436h499.418"/><path fill="#28D9F2" fill-rule="nonzero" stroke-width="2" d="M562.876 430.46L571 436l-8.124 5.541z"/></g><g><text fill="#000" fill-rule="nonzero" font-family="Helvetica" font-size="21" transform="rotate(-90 155.988 154.528)"><tspan x="0" y="20.516">Performance &amp; Safety</tspan></text><g stroke="#28D9F2" stroke-linecap="round" stroke-linejoin="round"><path stroke-width="4" d="M45 416V4"/><path fill="#28D9F2" fill-rule="nonzero" stroke-width="2" d="M39.459 7.092L45 0l5.541 7.092z"/></g></g></g></svg>