<svg xmlns="http://www.w3.org/2000/svg" width="64" height="64" viewBox="0 0 64 64"><defs><linearGradient id="a" x1="7299.879%" x2="428.582%" y1="36256.531%" y2="1952.522%"><stop offset="0%" stop-color="#F9EC1C"/><stop offset="100%" stop-color="#F05A2B"/></linearGradient><linearGradient id="b" x1="101.769%" x2="-151.781%" y1="309.444%" y2="-961.075%"><stop offset="0%" stop-color="#F9EC1C"/><stop offset="100%" stop-color="#F05A2B"/></linearGradient><linearGradient id="c" x1="70.321%" x2="3.995%" y1="91.461%" y2="-43.735%"><stop offset="0%" stop-color="#F9EC1C"/><stop offset="100%" stop-color="#F05A2B"/></linearGradient><linearGradient id="d" x1="128.084%" x2="-126.409%" y1="438.253%" y2="-827.561%"><stop offset="0%" stop-color="#F9EC1C"/><stop offset="100%" stop-color="#F05A2B"/></linearGradient><linearGradient id="e" x1="101.966%" x2="-152.526%" y1="308.517%" y2="-957.297%"><stop offset="0%" stop-color="#F9EC1C"/><stop offset="100%" stop-color="#F05A2B"/></linearGradient><linearGradient id="f" x1="128.072%" x2="-126.42%" y1="438.187%" y2="-827.627%"><stop offset="0%" stop-color="#F9EC1C"/><stop offset="100%" stop-color="#F05A2B"/></linearGradient><linearGradient id="g" x1="63.564%" x2="-2.761%" y1="77.628%" y2="-57.569%"><stop offset="0%" stop-color="#F9EC1C"/><stop offset="100%" stop-color="#F05A2B"/></linearGradient><linearGradient id="h" x1="101.78%" x2="-151.77%" y1="309.511%" y2="-961.009%"><stop offset="0%" stop-color="#F9EC1C"/><stop offset="100%" stop-color="#F05A2B"/></linearGradient><linearGradient id="i" x1="127.788%" x2="-125.762%" y1="439.663%" y2="-830.856%"><stop offset="0%" stop-color="#F9EC1C"/><stop offset="100%" stop-color="#F05A2B"/></linearGradient><linearGradient id="j" x1="55.865%" x2="46.874%" y1="166.898%" y2="-12.257%"><stop offset="0%" stop-color="#F9EC1C"/><stop offset="100%" stop-color="#F05A2B"/></linearGradient><linearGradient id="k" x1="55.787%" x2="46.918%" y1="166.99%" y2="-12.325%"><stop offset="0%" stop-color="#F9EC1C"/><stop offset="100%" stop-color="#F05A2B"/></linearGradient><linearGradient id="l" x1="55.673%" x2="46.981%" y1="167.162%" y2="-12.389%"><stop offset="0%" stop-color="#F9EC1C"/><stop offset="100%" stop-color="#F05A2B"/></linearGradient><linearGradient id="m" x1="55.741%" x2="46.944%" y1="167.045%" y2="-12.313%"><stop offset="0%" stop-color="#F9EC1C"/><stop offset="100%" stop-color="#F05A2B"/></linearGradient><linearGradient id="n" x1="55.96%" x2="46.827%" y1="166.789%" y2="-12.175%"><stop offset="0%" stop-color="#F9EC1C"/><stop offset="100%" stop-color="#F05A2B"/></linearGradient><linearGradient id="o" x1="55.909%" x2="46.854%" y1="166.852%" y2="-12.238%"><stop offset="0%" stop-color="#F9EC1C"/><stop offset="100%" stop-color="#F05A2B"/></linearGradient></defs><g fill="none" fill-rule="nonzero"><path fill="url(#a)" d="M10.36.375l-.04-.187-.168.041z" transform="translate(5)"/><path fill="url(#b)" d="M14.322 58.225l-4.67.939.938 4.69 4.67-.938z" transform="translate(5)"/><path fill="url(#c)" d="M31.104 52.117l20.659-4.148-.938-4.67-20.66 4.128z" transform="translate(5)"/><path fill="url(#d)" d="M22.827 48.907l.938 4.67 4.691-.939-.938-4.67z" transform="translate(5)"/><path fill="url(#e)" d="M22.598 61.436l-.938-4.67-4.69.938.937 4.67z" transform="translate(5)"/><path fill="url(#f)" d="M9.11 56.516l4.69-.938-.937-4.67-4.691.938z" transform="translate(5)"/><path fill="url(#g)" d="M52.284 50.616l-20.66 4.149.939 4.67 20.66-4.128z" transform="translate(5)"/><path fill="url(#h)" d="M24.307 56.224l.939 4.69 4.67-.937-.939-4.691z" transform="translate(5)"/><path fill="url(#i)" d="M16.448 55.057l4.67-.938-.938-4.691-4.67.938z" transform="translate(5)"/><path fill="url(#j)" d="M7.65 49.199l1.981-.396L2.126 11.34l-1.98.396z" transform="translate(5)"/><path fill="url(#k)" d="M10.36 48.657l1.981-.396L4.294 8.047l-1.98.396z" transform="translate(5)"/><path fill="url(#l)" d="M15.01 47.719l1.98-.397L7.776 1.397l-1.98.396z" transform="translate(5)"/><path fill="url(#m)" d="M17.72 47.177l1.98-.397-8.443-42.173-1.98.396z" transform="translate(5)"/><path fill="url(#n)" d="M22.306 46.26l1.98-.397-6.92-34.543-1.981.396z" transform="translate(5)"/><path fill="url(#o)" d="M25.016 45.717l1.98-.396-7.17-35.857-1.981.397z" transform="translate(5)"/></g></svg>