<svg xmlns="http://www.w3.org/2000/svg" width="770" height="325" viewBox="0 0 770 325"><g fill="none" fill-rule="evenodd"><g fill-rule="nonzero" transform="translate(1)"><rect width="768" height="48" fill="#000" rx="3"/><text fill="#FFF" font-family="Helvetica" font-size="18"><tspan x="298.5" y="30">Tokio core event loop</tspan></text></g><g transform="translate(1 72)"><rect width="768" height="48" fill="#F44AF5" fill-opacity=".25" fill-rule="nonzero" rx="3"/><rect width="768" height="48" stroke="#F44AF5" stroke-linecap="round" stroke-linejoin="round" stroke-width="2" rx="3"/><text fill="#000" fill-rule="nonzero" font-family="Helvetica" font-size="18"><tspan x="345" y="30">Main task</tspan></text></g><g transform="translate(1 144)"><rect width="768" height="48" fill="#3084FF" fill-opacity=".25" fill-rule="nonzero" rx="3"/><rect width="768" height="48" stroke="#3084FF" stroke-linecap="round" stroke-linejoin="round" stroke-width="2" rx="3"/><text fill="#000" fill-rule="nonzero" font-family="Helvetica" font-size="18"><tspan x="287.5" y="30">futures::futures::FromAll</tspan></text></g><g stroke="#C3CFD9" stroke-linecap="round" stroke-linejoin="round"><path stroke-width="4" d="M385 54v8"/><path fill="#C3CFD9" fill-rule="nonzero" stroke-width="2" d="M390.54 58.908L385 66l-5.54-7.092z"/></g><g stroke="#C3CFD9" stroke-linecap="round" stroke-linejoin="round"><path stroke-width="4" d="M385 126v8"/><path fill="#C3CFD9" fill-rule="nonzero" stroke-width="2" d="M390.54 130.908L385 138l-5.54-7.092z"/></g><g transform="translate(1 252)"><rect width="192" height="72" fill="#28D9F2" fill-opacity=".25" fill-rule="nonzero" rx="3"/><rect width="192" height="72" stroke="#28D9F2" stroke-linecap="round" stroke-linejoin="round" stroke-width="2" rx="3"/><text fill="#000" fill-rule="nonzero" font-family="Helvetica" font-size="15"><tspan x="63.5" y="31">Future #1</tspan></text><text fill="#000" fill-rule="nonzero" font-family="Helvetica" font-size="15"><tspan x="53.5" y="51">(component)</tspan></text></g><g transform="translate(205 252)"><rect width="180" height="72" fill="#28D9F2" fill-opacity=".25" fill-rule="nonzero" rx="3"/><rect width="180" height="72" stroke="#28D9F2" stroke-linecap="round" stroke-linejoin="round" stroke-width="2" rx="3"/><text fill="#000" fill-rule="nonzero" font-family="Helvetica" font-size="15"><tspan x="57.5" y="31">Future #2</tspan></text><text fill="#000" fill-rule="nonzero" font-family="Helvetica" font-size="15"><tspan x="47.5" y="51">(component)</tspan></text></g><g transform="translate(397 252)"><rect width="180" height="72" fill="#28D9F2" fill-opacity=".25" fill-rule="nonzero" rx="3"/><rect width="180" height="72" stroke="#28D9F2" stroke-linecap="round" stroke-linejoin="round" stroke-width="2" rx="3"/><text fill="#000" fill-rule="nonzero" font-family="Helvetica" font-size="15"><tspan x="57.5" y="31">Future #3</tspan></text><text fill="#000" fill-rule="nonzero" font-family="Helvetica" font-size="15"><tspan x="47.5" y="51">(component)</tspan></text></g><g transform="translate(589 252)"><rect width="180" height="72" fill="#28D9F2" fill-opacity=".25" fill-rule="nonzero" rx="3"/><rect width="180" height="72" stroke="#28D9F2" stroke-linecap="round" stroke-linejoin="round" stroke-width="2" rx="3"/><text fill="#000" fill-rule="nonzero" font-family="Helvetica" font-size="15"><tspan x="57.5" y="31">Future #n</tspan></text><text fill="#000" fill-rule="nonzero" font-family="Helvetica" font-size="15"><tspan x="47.5" y="51">(component)</tspan></text></g><g stroke="#C3CFD9" stroke-linecap="round" stroke-linejoin="round"><path stroke-width="4" d="M385 200v8a8 8 0 01-8 8H111c-7.732 0-14 6.268-14 14v10"/><path fill="#C3CFD9" fill-rule="nonzero" stroke-width="2" d="M102.54 236.908L97 244l-5.54-7.092z"/></g><g stroke="#C3CFD9" stroke-linecap="round" stroke-linejoin="round"><path stroke-width="4" d="M385 200v8a8 8 0 01-8 8h-68c-7.732 0-14 6.268-14 14v10"/><path fill="#C3CFD9" fill-rule="nonzero" stroke-width="2" d="M300.54 236.908L295 244l-5.54-7.092z"/></g><g stroke="#C3CFD9" stroke-linecap="round" stroke-linejoin="round"><path stroke-width="4" d="M385 200v8a8 8 0 008 8h80c7.732 0 14 6.268 14 14v10"/><path fill="#C3CFD9" fill-rule="nonzero" stroke-width="2" d="M492.54 236.908L487 244l-5.54-7.092z"/></g><g stroke="#C3CFD9" stroke-linecap="round" stroke-linejoin="round"><path stroke-width="4" d="M385 200v8a8 8 0 008 8h272c7.732 0 14 6.268 14 14v10"/><path fill="#C3CFD9" fill-rule="nonzero" stroke-width="2" d="M684.541 236.908L679 244l-5.541-7.092z"/></g></g></svg>