<svg xmlns="http://www.w3.org/2000/svg" fill="none" class="fill-current" viewBox="0 0 100 100"><path fill="url(#paint0_linear)" d="M43.739 17.934L24.307 6.708 5.68 17.576 4.048 14.78 24.285 2.974l19.454 11.225L62.366 3.444l1.61 2.795-20.237 11.695z"/><path fill="url(#paint1_linear)" d="M24.284 8.072a3.242 3.242 0 100-6.484 3.242 3.242 0 000 6.484z"/><path fill="url(#paint2_linear)" d="M24.284 9.705a4.862 4.862 0 01-4.852-4.853c0-2.66 2.191-4.852 4.852-4.852 2.661 0 4.852 2.191 4.852 4.852a4.862 4.862 0 01-4.852 4.853zm0-6.485c-.894 0-1.61.738-1.61 1.61 0 .872.716 1.61 1.61 1.61.895 0 1.61-.738 1.61-1.61 0-.872-.715-1.61-1.61-1.61z"/><path fill="url(#paint3_linear)" d="M63.149 8.072a3.242 3.242 0 100-6.484 3.242 3.242 0 000 6.484z"/><path fill="url(#paint4_linear)" d="M63.148 9.705a4.862 4.862 0 01-4.853-4.853c0-2.66 2.192-4.852 4.853-4.852C65.808 0 68 2.191 68 4.852a4.862 4.862 0 01-4.852 4.853zm0-6.485c-.895 0-1.61.738-1.61 1.61 0 .872.715 1.61 1.61 1.61.894 0 1.632-.716 1.632-1.61 0-.894-.738-1.61-1.632-1.61z"/><path fill="url(#paint5_linear)" d="M4.853 19.41a3.242 3.242 0 100-6.485 3.242 3.242 0 000 6.485z"/><path fill="url(#paint6_linear)" d="M4.852 21.02A4.848 4.848 0 010 16.166a4.862 4.862 0 014.852-4.852c2.661 0 4.853 2.191 4.853 4.852a4.862 4.862 0 01-4.853 4.852zm0-6.485c-.894 0-1.61.738-1.61 1.61 0 .872.716 1.61 1.61 1.61.895 0 1.61-.716 1.61-1.61 0-.895-.715-1.61-1.61-1.61z"/><path fill="url(#paint7_linear)" d="M43.739 19.41a3.242 3.242 0 100-6.485 3.242 3.242 0 000 6.485z"/><path fill="url(#paint8_linear)" d="M43.74 21.02a4.848 4.848 0 01-4.853-4.853 4.862 4.862 0 014.852-4.852c2.661 0 4.853 2.191 4.853 4.852a4.862 4.862 0 01-4.853 4.852zm0-6.485c-.895 0-1.61.738-1.61 1.61 0 .872.715 1.61 1.61 1.61.893 0 1.61-.716 1.61-1.61 0-.895-.717-1.61-1.61-1.61z"/><defs><linearGradient id="paint0_linear" x1="34.012" x2="34.012" y1="2.974" y2="17.934" gradientUnits="userSpaceOnUse"><stop stop-color="#C887FF"/><stop offset="1" stop-color="#10E7FF"/></linearGradient><linearGradient id="paint1_linear" x1="24.284" x2="24.284" y1="1.588" y2="8.072" gradientUnits="userSpaceOnUse"><stop stop-color="#C887FF"/><stop offset="1" stop-color="#10E7FF"/></linearGradient><linearGradient id="paint2_linear" x1="24.284" x2="24.284" y1="0" y2="9.705" gradientUnits="userSpaceOnUse"><stop stop-color="#C887FF"/><stop offset="1" stop-color="#10E7FF"/></linearGradient><linearGradient id="paint3_linear" x1="63.149" x2="63.149" y1="1.588" y2="8.072" gradientUnits="userSpaceOnUse"><stop stop-color="#C887FF"/><stop offset="1" stop-color="#10E7FF"/></linearGradient><linearGradient id="paint4_linear" x1="63.148" x2="63.148" y1="0" y2="9.705" gradientUnits="userSpaceOnUse"><stop stop-color="#C887FF"/><stop offset="1" stop-color="#10E7FF"/></linearGradient><linearGradient id="paint5_linear" x1="4.853" x2="4.853" y1="12.925" y2="19.41" gradientUnits="userSpaceOnUse"><stop stop-color="#C887FF"/><stop offset="1" stop-color="#10E7FF"/></linearGradient><linearGradient id="paint6_linear" x1="4.852" x2="4.852" y1="11.315" y2="21.02" gradientUnits="userSpaceOnUse"><stop stop-color="#C887FF"/><stop offset="1" stop-color="#10E7FF"/></linearGradient><linearGradient id="paint7_linear" x1="43.739" x2="43.739" y1="12.925" y2="19.41" gradientUnits="userSpaceOnUse"><stop stop-color="#C887FF"/><stop offset="1" stop-color="#10E7FF"/></linearGradient><linearGradient id="paint8_linear" x1="43.739" x2="43.739" y1="11.315" y2="21.02" gradientUnits="userSpaceOnUse"><stop stop-color="#C887FF"/><stop offset="1" stop-color="#10E7FF"/></linearGradient></defs></svg>